<svg width="24" height="24" viewBox="0 0 24 24" fill="none" xmlns="http://www.w3.org/2000/svg">
<path d="M10.306 21.75C8.39599 21.75 6.61698 21.021 5.29598 19.697C2.50998 16.903 2.55317 12.314 5.39217 9.46796L11.1202 3.72397C12.0672 2.77397 13.328 2.25098 14.668 2.25098C16.008 2.25098 17.2691 2.77397 18.2161 3.72397C20.1701 5.68397 20.1701 8.87298 18.2161 10.833L12.46 16.604C11.372 17.696 9.47318 17.697 8.38118 16.604C7.25818 15.478 7.25818 13.646 8.38118 12.52L13.4371 7.44998C13.7301 7.15698 14.2051 7.15597 14.4981 7.44897C14.7921 7.74097 14.7921 8.21598 14.5001 8.50998L9.44417 13.58C8.90317 14.122 8.90317 15.004 9.44417 15.546C9.96517 16.07 10.877 16.069 11.398 15.546L17.1541 9.77496C18.5261 8.39896 18.5261 6.15997 17.1541 4.78397C15.8261 3.45197 13.5112 3.45197 12.1832 4.78397L6.45516 10.528C4.23616 12.752 4.19297 16.467 6.35897 18.639C7.39597 19.679 8.79699 20.251 10.306 20.251C11.853 20.251 13.36 19.629 14.442 18.544L19.4691 13.502C19.7611 13.209 20.2361 13.208 20.5301 13.501C20.8241 13.793 20.8241 14.268 20.5321 14.562L15.505 19.604C14.143 20.967 12.248 21.75 10.306 21.75Z" fill="#25314C"/>
</svg>
