<svg width="46" height="46" viewBox="0 0 46 46" fill="none" xmlns="http://www.w3.org/2000/svg">
<path d="M39.2916 23.0004C39.2916 23.5294 38.8622 23.9587 38.3332 23.9587H9.98005L16.0099 29.9886C16.3836 30.3623 16.3836 30.97 16.0099 31.3437C15.822 31.5315 15.5767 31.6235 15.3314 31.6235C15.086 31.6235 14.8407 31.5296 14.6529 31.3437L6.98619 23.677C6.89803 23.5889 6.82728 23.4814 6.77937 23.3645C6.68162 23.1306 6.68162 22.8664 6.77937 22.6326C6.82728 22.5138 6.89803 22.4082 6.98619 22.32L14.6529 14.6534C15.0266 14.2796 15.6343 14.2796 16.008 14.6534C16.3818 15.0271 16.3818 15.6348 16.008 16.0085L9.97818 22.0383H38.3332C38.8622 22.0422 39.2916 22.4714 39.2916 23.0004Z" fill="#F3FF6B"/>
</svg>
