<svg width="28" height="28" viewBox="0 0 28 28" fill="none" xmlns="http://www.w3.org/2000/svg">
<path d="M12.5748 15.8789C12.5748 16.859 11.856 17.1687 10.973 17.1687H8.65759V14.4824H11.0192C11.9741 14.4875 12.5748 14.8785 12.5748 15.8789ZM12.1795 11.6996C12.1795 10.8008 11.4761 10.5875 10.6958 10.5875H8.66272V12.8625H10.8549C11.6301 12.8625 12.1795 12.5273 12.1795 11.6996ZM18.9717 12.8777C18.0321 12.8777 17.4058 13.4566 17.3442 14.3859H20.5375C20.4502 13.4465 19.9574 12.8777 18.9717 12.8777ZM26 5.0625V22.9375C26 24.2832 24.8962 25.375 23.5357 25.375H5.46429C4.10379 25.375 3 24.2832 3 22.9375V5.0625C3 3.7168 4.10379 2.625 5.46429 2.625H23.5357C24.8962 2.625 26 3.7168 26 5.0625ZM16.9489 10.3945H20.9431V9.43477H16.9489V10.3945ZM14.7413 15.9957C14.7413 14.7719 14.156 13.7156 12.9444 13.3754C13.8275 12.959 14.2895 12.4766 14.2895 11.4965C14.2895 9.55664 12.8263 9.08437 11.1373 9.08437H6.49107V18.8344H11.2708C13.0625 18.8242 14.7413 17.9762 14.7413 15.9957ZM22.5089 15.2441C22.5089 13.157 21.2717 11.4152 19.0384 11.4152C16.8616 11.4152 15.3882 13.0301 15.3882 15.1527C15.3882 17.3516 16.7897 18.8598 19.0384 18.8598C20.7429 18.8598 21.8467 18.1031 22.3806 16.4832H20.6504C20.4605 17.0875 19.6955 17.4023 19.1 17.4023C17.95 17.4023 17.3493 16.7371 17.3493 15.6098H22.4935C22.4987 15.493 22.5089 15.366 22.5089 15.2441Z" fill="#E2CAFF"/>
</svg>
