<svg width="24" height="24" viewBox="0 0 24 24" fill="none" xmlns="http://www.w3.org/2000/svg">
<path d="M18.354 17.6462C18.549 17.8412 18.549 18.1583 18.354 18.3533C18.256 18.4513 18.128 18.4993 18 18.4993C17.872 18.4993 17.744 18.4503 17.646 18.3533L12 12.7072L6.35401 18.3533C6.25601 18.4513 6.12801 18.4993 6.00001 18.4993C5.87201 18.4993 5.74401 18.4503 5.64601 18.3533C5.45101 18.1583 5.45101 17.8412 5.64601 17.6462L11.292 12.0003L5.64601 6.35426C5.45101 6.15926 5.45101 5.84223 5.64601 5.64723C5.84101 5.45223 6.15801 5.45223 6.35301 5.64723L11.999 11.2933L17.645 5.64723C17.84 5.45223 18.157 5.45223 18.352 5.64723C18.547 5.84223 18.547 6.15926 18.352 6.35426L12.707 12.0003L18.354 17.6462Z" fill="#25314C"/>
</svg>
