<svg width="28" height="28" viewBox="0 0 28 28" fill="none" xmlns="http://www.w3.org/2000/svg">
<g clip-path="url(#clip0_175_2949)">
<path d="M23.3715 3H4.62422C3.72617 3 3 3.70898 3 4.58555V23.4102C3 24.2867 3.72617 25 4.62422 25H23.3715C24.2695 25 25 24.2867 25 23.4145V4.58555C25 3.70898 24.2695 3 23.3715 3ZM9.52695 21.7473H6.26133V11.2457H9.52695V21.7473ZM7.89414 9.81484C6.8457 9.81484 5.99922 8.96836 5.99922 7.92422C5.99922 6.88008 6.8457 6.03359 7.89414 6.03359C8.93828 6.03359 9.78477 6.88008 9.78477 7.92422C9.78477 8.96406 8.93828 9.81484 7.89414 9.81484ZM21.7473 21.7473H18.4859V16.6426C18.4859 15.4266 18.4645 13.8582 16.7887 13.8582C15.0914 13.8582 14.8336 15.1859 14.8336 16.5566V21.7473H11.5766V11.2457H14.7047V12.6809H14.7477C15.1816 11.8559 16.2473 10.9836 17.8328 10.9836C21.1371 10.9836 21.7473 13.1578 21.7473 15.9852V21.7473Z" fill="#E2CAFF"/>
</g>
<defs>
<clipPath id="clip0_175_2949">
<rect width="22" height="22" fill="white" transform="translate(3 3)"/>
</clipPath>
</defs>
</svg>
