<svg width="24" height="24" viewBox="0 0 24 24" fill="none" xmlns="http://www.w3.org/2000/svg">
<path d="M16.5521 21.7524C16.0931 21.7524 15.6311 21.6904 15.1751 21.5654C9.01011 19.8734 4.12909 14.9954 2.43609 8.83441C2.05109 7.43341 2.26204 5.97341 3.03204 4.72541C3.80504 3.47141 5.0761 2.5864 6.5191 2.2984C7.4791 2.1064 8.4281 2.53441 8.9151 3.35541L10.4781 5.99539C11.2371 7.27739 10.86 8.9284 9.61896 9.7544L8.4881 10.5064C9.5451 12.6764 11.3229 14.4594 13.4839 15.5154L14.2462 14.3784C15.0772 13.1394 16.7281 12.7684 18.0091 13.5314L20.6522 15.1074C21.4702 15.5954 21.8931 16.5504 21.7071 17.4824C21.4191 18.9254 20.5341 20.1964 19.2811 20.9694C18.4391 21.4874 17.5021 21.7524 16.5521 21.7524ZM6.97809 3.7504C6.92909 3.7504 6.87911 3.75541 6.83111 3.76541C5.77711 3.97641 4.86412 4.61139 4.31012 5.51239C3.76112 6.40239 3.61009 7.4414 3.88409 8.4364C5.43709 14.0894 9.91608 18.5664 15.5721 20.1184C16.5681 20.3914 17.604 20.2394 18.493 19.6914C19.393 19.1364 20.0291 18.2224 20.2361 17.1864C20.2981 16.8754 20.1571 16.5564 19.8831 16.3934L17.241 14.8174C16.646 14.4634 15.878 14.6364 15.492 15.2114L14.377 16.8764C14.177 17.1744 13.7911 17.2884 13.4651 17.1504C10.5021 15.9114 8.09113 13.4954 6.85113 10.5214C6.71313 10.1894 6.82899 9.8074 7.12799 9.6084L8.78912 8.50339C9.36512 8.12039 9.54007 7.35339 9.18707 6.75839L7.62408 4.11939C7.48708 3.88739 7.23909 3.7504 6.97809 3.7504Z" fill="#0C062C"/>
</svg>
