<svg width="28" height="28" viewBox="0 0 28 28" fill="none" xmlns="http://www.w3.org/2000/svg">
<path d="M6.625 3.5H22.375C23.8234 3.5 25 4.67656 25 6.125V21.875C25 23.3234 23.8234 24.5 22.375 24.5H6.625C5.17656 24.5 4 23.3234 4 21.875V6.125C4 4.67656 5.17656 3.5 6.625 3.5ZM16.6984 14.8531C17.0078 12.3734 17.9125 11.5953 19.1078 11.5953C20.2937 11.5953 21.2125 12.5422 21.2125 13.925C21.2125 15.3078 20.2891 16.2547 19.1078 16.2547C17.8 16.2547 16.9375 15.2469 16.6984 14.8531ZM15.4469 12.8937C15.0625 12.1672 14.7766 11.1922 14.5469 10.2875H11.5984V13.9484C11.5984 15.2797 10.9938 16.2641 9.80781 16.2641C8.62188 16.2641 7.94219 15.2844 7.94219 13.9531L7.95625 10.2922H6.25938V13.9531C6.25938 15.0219 6.60625 15.9922 7.23906 16.6813C7.89062 17.3938 8.77656 17.7687 9.80781 17.7687C11.8563 17.7687 13.2859 16.1984 13.2859 13.9484V11.4875C13.5016 12.2984 14.0078 13.8547 14.9828 15.2234L14.0781 20.4031H15.8031L16.4031 16.7281C16.6 16.8922 16.8109 17.0375 17.0312 17.1688C17.6078 17.5344 18.2687 17.7406 18.9484 17.7594H19.1078C21.2219 17.7594 22.9 16.1234 22.9 13.9203C22.9 11.7172 21.2172 10.0672 19.1078 10.0672C16.9797 10.0672 15.7844 11.4594 15.4469 12.8844V12.8937Z" fill="#E2CAFF"/>
</svg>
