<svg width="249" height="48" viewBox="0 0 249 48" fill="none" xmlns="http://www.w3.org/2000/svg">
<path d="M33.3346 32.9841L25.9783 35.8961C23.7485 36.6399 18.7937 38.3153 16.8125 39.067C14.8314 39.8188 13.3463 38.1343 12.8513 37.1982C10.998 31.893 6.9194 21.2246 6.75166 20.4424C6.45826 19.0743 7.01099 16.6415 9.54105 15.9613C11.5651 15.4172 13.6443 16.9017 14.2181 18.1679C14.7996 20.3747 16.5055 25.946 18.677 30.5776L27.0879 27.4019L33.3346 32.9841Z" fill="url(#paint0_linear_181_2980)"/>
<path d="M22.7054 13.702L30.0701 10.8114C32.302 10.0741 37.2617 8.41311 39.245 7.66713C41.2284 6.92115 42.7086 8.60989 43.2008 9.5475C45.0387 14.858 49.0863 25.5382 49.2517 26.3209C49.5412 27.6899 48.9814 30.1211 46.4493 30.7939C44.4237 31.3321 42.3489 29.8415 41.7787 28.5737C41.2036 26.3653 39.514 20.789 37.3559 16.1511L28.9358 19.3024L22.7054 13.702Z" fill="url(#paint1_linear_181_2980)"/>
<path d="M16.0287 7.64738L24.3495 14.9486C31.4413 21.4272 45.7643 34.6124 46.3214 35.5245C47.0178 36.6645 47.4973 38.4045 45.3664 40.3938C43.6617 41.9852 41.7327 41.1027 40.9813 40.4625C31.3552 31.6611 11.9617 13.911 11.3959 13.3218C10.6886 12.5854 9.48356 10.2755 11.5924 8.33442C13.2794 6.78152 15.2529 7.22935 16.0287 7.64738Z" fill="url(#paint2_linear_181_2980)"/>
<path d="M13.9414 17.7766L18.8894 30.8373C21.1583 35.6321 23.8526 35.6489 25.6175 35.9795C23.8382 36.613 19.9944 38.2028 17.5765 39.1848C15.1586 40.1668 13.3842 38.5553 12.8756 37.525L6.73967 20.3276C6.57129 19.1257 6.76312 16.6096 9.40034 15.9129C12.0376 15.2162 13.446 16.6406 13.9414 17.7766Z" fill="url(#paint3_linear_181_2980)"/>
<path d="M42.0536 28.966L37.1436 15.891C34.8887 11.0896 32.1944 11.065 30.4304 10.7292C32.2116 10.1009 36.06 8.52225 38.4807 7.54728C40.9015 6.57231 42.6711 8.18898 43.1768 9.22075L49.2627 26.4359C49.4276 27.6383 49.2285 30.1539 46.5892 30.8429C43.95 31.5319 42.5457 30.1034 42.0536 28.966Z" fill="url(#paint4_linear_181_2980)"/>
<path d="M72.619 34H64.363V32.336L67.051 31.728V13.456L64.363 12.816V11.152H72.619V12.816L69.931 13.456V31.728L72.619 32.336V34ZM84.2628 16.528C86.3108 16.528 87.8574 17.0293 88.9028 18.032C89.9481 19.0133 90.4708 20.6133 90.4708 22.832V34H87.6868V23.024C87.6868 21.6373 87.3774 20.6027 86.7588 19.92C86.1401 19.2373 85.1694 18.896 83.8468 18.896C81.9481 18.896 80.6361 19.4293 79.9108 20.496C79.1854 21.5627 78.8228 23.0987 78.8228 25.104V34H76.0068V16.848H78.2788L78.6948 19.184H78.8548C79.2388 18.5867 79.7081 18.096 80.2628 17.712C80.8388 17.3067 81.4681 17.008 82.1508 16.816C82.8334 16.624 83.5374 16.528 84.2628 16.528ZM103.052 19.024H98.732V34H95.916V19.024H92.908V17.712L95.916 16.752V15.76C95.916 14.288 96.1293 13.0933 96.556 12.176C97.004 11.2587 97.644 10.5867 98.476 10.16C99.308 9.73333 100.311 9.52 101.484 9.52C102.167 9.52 102.785 9.584 103.34 9.712C103.916 9.81867 104.407 9.94667 104.812 10.096L104.076 12.304C103.735 12.1973 103.34 12.0907 102.892 11.984C102.444 11.8773 101.985 11.824 101.516 11.824C100.577 11.824 99.8733 12.144 99.404 12.784C98.956 13.4027 98.732 14.384 98.732 15.728V16.848H103.052V19.024ZM108.972 16.848V34H106.156V16.848H108.972ZM107.596 10.416C108.023 10.416 108.396 10.5653 108.716 10.864C109.057 11.1413 109.228 11.5893 109.228 12.208C109.228 12.8053 109.057 13.2533 108.716 13.552C108.396 13.8507 108.023 14 107.596 14C107.127 14 106.732 13.8507 106.412 13.552C106.092 13.2533 105.932 12.8053 105.932 12.208C105.932 11.5893 106.092 11.1413 106.412 10.864C106.732 10.5653 107.127 10.416 107.596 10.416ZM122.014 16.528C124.062 16.528 125.609 17.0293 126.654 18.032C127.699 19.0133 128.222 20.6133 128.222 22.832V34H125.438V23.024C125.438 21.6373 125.129 20.6027 124.51 19.92C123.891 19.2373 122.921 18.896 121.598 18.896C119.699 18.896 118.387 19.4293 117.662 20.496C116.937 21.5627 116.574 23.0987 116.574 25.104V34H113.758V16.848H116.03L116.446 19.184H116.606C116.99 18.5867 117.459 18.096 118.014 17.712C118.59 17.3067 119.219 17.008 119.902 16.816C120.585 16.624 121.289 16.528 122.014 16.528ZM135.715 16.848V34H132.899V16.848H135.715ZM134.339 10.416C134.766 10.416 135.139 10.5653 135.459 10.864C135.801 11.1413 135.971 11.5893 135.971 12.208C135.971 12.8053 135.801 13.2533 135.459 13.552C135.139 13.8507 134.766 14 134.339 14C133.87 14 133.475 13.8507 133.155 13.552C132.835 13.2533 132.675 12.8053 132.675 12.208C132.675 11.5893 132.835 11.1413 133.155 10.864C133.475 10.5653 133.87 10.416 134.339 10.416ZM146.237 32.016C146.664 32.016 147.101 31.984 147.549 31.92C147.997 31.8347 148.36 31.7493 148.637 31.664V33.808C148.339 33.9573 147.912 34.0747 147.357 34.16C146.803 34.2667 146.269 34.32 145.757 34.32C144.861 34.32 144.029 34.1707 143.261 33.872C142.515 33.552 141.907 33.008 141.437 32.24C140.968 31.472 140.733 30.3947 140.733 29.008V19.024H138.301V17.68L140.765 16.56L141.885 12.912H143.549V16.848H148.509V19.024H143.549V28.944C143.549 29.9893 143.795 30.768 144.285 31.28C144.797 31.7707 145.448 32.016 146.237 32.016ZM148.744 16.848H151.752L155.464 26.608C155.677 27.184 155.869 27.7387 156.04 28.272C156.232 28.8053 156.402 29.328 156.552 29.84C156.701 30.3307 156.818 30.8107 156.904 31.28H157.032C157.16 30.7467 157.362 30.0533 157.64 29.2C157.917 28.3253 158.205 27.4507 158.504 26.576L161.992 16.848H165.032L157.64 36.368C157.234 37.4347 156.754 38.3627 156.2 39.152C155.666 39.9627 155.005 40.5813 154.216 41.008C153.448 41.456 152.509 41.68 151.4 41.68C150.888 41.68 150.44 41.648 150.056 41.584C149.672 41.5413 149.341 41.488 149.064 41.424V39.184C149.298 39.2267 149.576 39.2693 149.896 39.312C150.237 39.3547 150.589 39.376 150.952 39.376C151.613 39.376 152.178 39.248 152.648 38.992C153.138 38.7573 153.554 38.4053 153.896 37.936C154.237 37.488 154.525 36.9547 154.76 36.336L155.656 34.064L148.744 16.848ZM185.578 13.36C184.362 13.36 183.263 13.5733 182.282 14C181.3 14.4053 180.468 15.0133 179.786 15.824C179.103 16.6133 178.58 17.584 178.218 18.736C177.855 19.8667 177.674 21.1467 177.674 22.576C177.674 24.4533 177.962 26.0853 178.538 27.472C179.135 28.8587 180.01 29.9253 181.162 30.672C182.335 31.4187 183.796 31.792 185.546 31.792C186.548 31.792 187.498 31.7067 188.394 31.536C189.29 31.3653 190.164 31.152 191.018 30.896V33.392C190.164 33.712 189.279 33.9467 188.362 34.096C187.466 34.2453 186.388 34.32 185.13 34.32C182.804 34.32 180.863 33.84 179.306 32.88C177.748 31.92 176.575 30.5547 175.786 28.784C175.018 27.0133 174.634 24.9333 174.634 22.544C174.634 20.816 174.868 19.2373 175.338 17.808C175.828 16.3787 176.532 15.1413 177.45 14.096C178.388 13.0507 179.54 12.2507 180.906 11.696C182.271 11.12 183.839 10.832 185.61 10.832C186.783 10.832 187.914 10.9493 189.002 11.184C190.09 11.4187 191.06 11.7493 191.914 12.176L190.762 14.608C190.058 14.288 189.268 14 188.394 13.744C187.54 13.488 186.602 13.36 185.578 13.36ZM209.893 25.392C209.893 26.8213 209.701 28.0907 209.317 29.2C208.954 30.288 208.421 31.216 207.717 31.984C207.034 32.752 206.191 33.3387 205.189 33.744C204.207 34.128 203.109 34.32 201.893 34.32C200.762 34.32 199.717 34.128 198.757 33.744C197.797 33.3387 196.965 32.752 196.261 31.984C195.557 31.216 195.002 30.288 194.597 29.2C194.213 28.0907 194.021 26.8213 194.021 25.392C194.021 23.4933 194.341 21.8933 194.981 20.592C195.621 19.2693 196.538 18.2667 197.733 17.584C198.927 16.88 200.346 16.528 201.989 16.528C203.546 16.528 204.911 16.88 206.085 17.584C207.279 18.2667 208.207 19.2693 208.869 20.592C209.551 21.8933 209.893 23.4933 209.893 25.392ZM196.933 25.392C196.933 26.736 197.103 27.9093 197.445 28.912C197.807 29.8933 198.362 30.6507 199.109 31.184C199.855 31.7173 200.805 31.984 201.957 31.984C203.109 31.984 204.058 31.7173 204.805 31.184C205.551 30.6507 206.095 29.8933 206.437 28.912C206.799 27.9093 206.981 26.736 206.981 25.392C206.981 24.0267 206.799 22.864 206.437 21.904C206.074 20.944 205.519 20.208 204.773 19.696C204.047 19.1627 203.098 18.896 201.925 18.896C200.175 18.896 198.906 19.472 198.117 20.624C197.327 21.776 196.933 23.3653 196.933 25.392ZM219.796 34.32C217.662 34.32 215.956 33.584 214.676 32.112C213.396 30.6187 212.756 28.4 212.756 25.456C212.756 22.512 213.396 20.2933 214.676 18.8C215.977 17.2853 217.694 16.528 219.828 16.528C220.724 16.528 221.502 16.6453 222.164 16.88C222.825 17.0933 223.401 17.392 223.892 17.776C224.382 18.16 224.798 18.5867 225.14 19.056H225.332C225.31 18.7787 225.268 18.3733 225.204 17.84C225.161 17.2853 225.14 16.848 225.14 16.528V9.68H227.956V34H225.684L225.268 31.696H225.14C224.798 32.1867 224.382 32.6347 223.892 33.04C223.401 33.424 222.814 33.7333 222.132 33.968C221.47 34.2027 220.692 34.32 219.796 34.32ZM220.244 31.984C222.057 31.984 223.326 31.4933 224.052 30.512C224.798 29.5093 225.172 28.0053 225.172 26V25.488C225.172 23.3547 224.82 21.7227 224.116 20.592C223.412 19.44 222.11 18.864 220.212 18.864C218.697 18.864 217.556 19.472 216.788 20.688C216.041 21.8827 215.668 23.4933 215.668 25.52C215.668 27.568 216.041 29.1573 216.788 30.288C217.556 31.4187 218.708 31.984 220.244 31.984ZM239.387 16.528C240.859 16.528 242.118 16.848 243.163 17.488C244.23 18.128 245.04 19.0347 245.595 20.208C246.171 21.36 246.459 22.7147 246.459 24.272V25.968H234.715C234.758 27.9093 235.248 29.392 236.187 30.416C237.147 31.4187 238.48 31.92 240.187 31.92C241.275 31.92 242.235 31.824 243.067 31.632C243.92 31.4187 244.795 31.12 245.691 30.736V33.2C244.816 33.584 243.952 33.8613 243.099 34.032C242.246 34.224 241.232 34.32 240.059 34.32C238.438 34.32 236.998 33.9893 235.739 33.328C234.502 32.6667 233.531 31.6853 232.827 30.384C232.144 29.0613 231.803 27.4507 231.803 25.552C231.803 23.6747 232.112 22.064 232.731 20.72C233.371 19.376 234.256 18.3413 235.387 17.616C236.539 16.8907 237.872 16.528 239.387 16.528ZM239.355 18.832C238.011 18.832 236.944 19.2693 236.155 20.144C235.387 20.9973 234.928 22.192 234.779 23.728H243.515C243.515 22.7467 243.366 21.8933 243.067 21.168C242.768 20.4427 242.31 19.8773 241.691 19.472C241.094 19.0453 240.315 18.832 239.355 18.832Z" fill="white"/>
<defs>
<linearGradient id="paint0_linear_181_2980" x1="21.4992" y1="31.44" x2="30.5528" y2="25.9604" gradientUnits="userSpaceOnUse">
<stop stop-color="#0040C4"/>
<stop offset="1" stop-color="#226FFF"/>
<stop offset="1" stop-color="#226FFF"/>
</linearGradient>
<linearGradient id="paint1_linear_181_2980" x1="34.5362" y1="15.2806" x2="25.4667" y2="20.7338" gradientUnits="userSpaceOnUse">
<stop stop-color="#0040C4"/>
<stop offset="1" stop-color="#226FFF"/>
<stop offset="1" stop-color="#226FFF"/>
</linearGradient>
<linearGradient id="paint2_linear_181_2980" x1="45.7155" y1="12.1566" x2="18.7184" y2="41.874" gradientUnits="userSpaceOnUse">
<stop offset="0.376921" stop-color="#0040C4"/>
<stop offset="0.499989" stop-color="#226FFF"/>
<stop offset="0.681796" stop-color="#0040C4"/>
</linearGradient>
<linearGradient id="paint3_linear_181_2980" x1="21.5234" y1="35.6631" x2="9.12632" y2="16.2038" gradientUnits="userSpaceOnUse">
<stop stop-color="#226FFF"/>
<stop offset="0.779976" stop-color="#0040C4"/>
</linearGradient>
<linearGradient id="paint4_linear_181_2980" x1="34.5236" y1="11.0575" x2="46.8641" y2="30.5528" gradientUnits="userSpaceOnUse">
<stop stop-color="#226FFF"/>
<stop offset="0.779976" stop-color="#0040C4"/>
</linearGradient>
</defs>
</svg>
