<svg width="57" height="42" viewBox="0 0 57 42" fill="none" xmlns="http://www.w3.org/2000/svg">
<path d="M33.1931 29.8726L25.8683 32.7487C23.6481 33.4833 18.7145 35.1381 16.7418 35.8805C14.7691 36.623 13.2904 34.9594 12.7976 34.0347C10.9522 28.795 6.89101 18.2583 6.72398 17.4858C6.43184 16.1345 6.98221 13.7317 9.50144 13.06C11.5168 12.5226 13.5871 13.9888 14.1585 15.2393C14.7375 17.4188 16.4361 22.9214 18.5983 27.4958L26.9732 24.3594L33.1931 29.8726Z" fill="url(#paint0_linear_664_1540)"/>
<path d="M22.6077 10.8288L29.9409 7.97385C32.1633 7.24568 37.1017 5.60516 39.0766 4.86839C41.0514 4.13162 42.5253 5.79951 43.0154 6.72555C44.8454 11.9706 48.8757 22.5189 49.0405 23.2919C49.3286 24.644 48.7712 27.0452 46.25 27.7097C44.2331 28.2413 42.1671 26.7691 41.5994 25.5169C41.0268 23.3358 39.3443 17.8283 37.1956 13.2477L28.8114 16.36L22.6077 10.8288Z" fill="url(#paint1_linear_664_1540)"/>
<path d="M15.9602 4.84888L24.2454 12.06C31.3069 18.4587 45.5686 31.4812 46.1233 32.382C46.8167 33.5079 47.2941 35.2264 45.1723 37.1912C43.4749 38.7629 41.5542 37.8913 40.806 37.259C31.2211 28.5662 11.9106 11.0352 11.3472 10.4533C10.6429 9.72593 9.44305 7.4446 11.5429 5.52744C13.2227 3.99371 15.1877 4.43601 15.9602 4.84888Z" fill="url(#paint2_linear_664_1540)"/>
<path d="M13.8815 14.8528L18.8082 27.7523C21.0674 32.488 23.7502 32.5045 25.5076 32.8311C23.7359 33.4568 19.9086 35.027 17.501 35.9969C15.0934 36.9667 13.3267 35.3751 12.8202 34.3575L6.71052 17.3724C6.54286 16.1853 6.73387 13.7002 9.35981 13.0121C11.9857 12.3241 13.3882 13.7309 13.8815 14.8528Z" fill="url(#paint3_linear_664_1540)"/>
<path d="M41.8746 25.9045L36.9856 12.9909C34.7403 8.24872 32.0576 8.22442 30.3011 7.89281C32.0747 7.27224 35.9066 5.71306 38.317 4.75013C40.7274 3.78719 42.4895 5.38391 42.9929 6.40294L49.0529 23.4056C49.217 24.5932 49.0188 27.0777 46.3908 27.7582C43.7629 28.4387 42.3645 27.0279 41.8746 25.9045Z" fill="url(#paint4_linear_664_1540)"/>
<defs>
<linearGradient id="paint0_linear_664_1540" x1="21.4085" y1="28.3476" x2="30.3839" y2="22.871" gradientUnits="userSpaceOnUse">
<stop stop-color="#0040C4"/>
<stop offset="1" stop-color="#226FFF"/>
<stop offset="1" stop-color="#226FFF"/>
</linearGradient>
<linearGradient id="paint1_linear_664_1540" x1="34.3879" y1="12.3879" x2="25.3963" y2="17.8383" gradientUnits="userSpaceOnUse">
<stop stop-color="#0040C4"/>
<stop offset="1" stop-color="#226FFF"/>
<stop offset="1" stop-color="#226FFF"/>
</linearGradient>
<linearGradient id="paint2_linear_664_1540" x1="45.5199" y1="9.30246" x2="18.8776" y2="38.8687" gradientUnits="userSpaceOnUse">
<stop offset="0.376921" stop-color="#0040C4"/>
<stop offset="0.499989" stop-color="#226FFF"/>
<stop offset="0.681796" stop-color="#0040C4"/>
</linearGradient>
<linearGradient id="paint3_linear_664_1540" x1="21.431" y1="32.5186" x2="9.22923" y2="13.2095" gradientUnits="userSpaceOnUse">
<stop stop-color="#226FFF"/>
<stop offset="0.779976" stop-color="#0040C4"/>
</linearGradient>
<linearGradient id="paint4_linear_664_1540" x1="34.3768" y1="8.21705" x2="46.5224" y2="27.561" gradientUnits="userSpaceOnUse">
<stop stop-color="#226FFF"/>
<stop offset="0.779976" stop-color="#0040C4"/>
</linearGradient>
</defs>
</svg>
