<svg width="183" height="33" viewBox="0 0 183 33" fill="none" xmlns="http://www.w3.org/2000/svg">
<path d="M8.61803 25H0.362031V23.336L3.05003 22.728V4.456L0.362031 3.816V2.152H8.61803V3.816L5.93003 4.456V22.728L8.61803 23.336V25ZM20.2618 7.528C22.3098 7.528 23.8564 8.02933 24.9018 9.032C25.9471 10.0133 26.4698 11.6133 26.4698 13.832V25H23.6858V14.024C23.6858 12.6373 23.3764 11.6027 22.7578 10.92C22.1391 10.2373 21.1684 9.896 19.8458 9.896C17.9471 9.896 16.6351 10.4293 15.9098 11.496C15.1844 12.5627 14.8218 14.0987 14.8218 16.104V25H12.0058V7.848H14.2778L14.6938 10.184H14.8538C15.2378 9.58667 15.7071 9.096 16.2618 8.712C16.8378 8.30667 17.4671 8.008 18.1498 7.816C18.8324 7.624 19.5364 7.528 20.2618 7.528ZM39.051 10.024H34.731V25H31.915V10.024H28.907V8.712L31.915 7.752V6.76C31.915 5.288 32.1284 4.09333 32.555 3.176C33.003 2.25867 33.643 1.58667 34.475 1.16C35.307 0.733332 36.3097 0.519999 37.483 0.519999C38.1657 0.519999 38.7844 0.583998 39.339 0.711998C39.915 0.818666 40.4057 0.946666 40.811 1.096L40.075 3.304C39.7337 3.19733 39.339 3.09067 38.891 2.984C38.443 2.87733 37.9844 2.824 37.515 2.824C36.5764 2.824 35.8724 3.144 35.403 3.784C34.955 4.40267 34.731 5.384 34.731 6.728V7.848H39.051V10.024ZM44.971 7.848V25H42.155V7.848H44.971ZM43.595 1.416C44.0217 1.416 44.395 1.56533 44.715 1.864C45.0564 2.14133 45.227 2.58933 45.227 3.208C45.227 3.80533 45.0564 4.25333 44.715 4.552C44.395 4.85067 44.0217 5 43.595 5C43.1257 5 42.731 4.85067 42.411 4.552C42.091 4.25333 41.931 3.80533 41.931 3.208C41.931 2.58933 42.091 2.14133 42.411 1.864C42.731 1.56533 43.1257 1.416 43.595 1.416ZM58.013 7.528C60.061 7.528 61.6077 8.02933 62.653 9.032C63.6984 10.0133 64.221 11.6133 64.221 13.832V25H61.437V14.024C61.437 12.6373 61.1277 11.6027 60.509 10.92C59.8904 10.2373 58.9197 9.896 57.597 9.896C55.6984 9.896 54.3864 10.4293 53.661 11.496C52.9357 12.5627 52.573 14.0987 52.573 16.104V25H49.757V7.848H52.029L52.445 10.184H52.605C52.989 9.58667 53.4584 9.096 54.013 8.712C54.589 8.30667 55.2184 8.008 55.901 7.816C56.5837 7.624 57.2877 7.528 58.013 7.528ZM71.7143 7.848V25H68.8983V7.848H71.7143ZM70.3383 1.416C70.765 1.416 71.1383 1.56533 71.4583 1.864C71.7996 2.14133 71.9703 2.58933 71.9703 3.208C71.9703 3.80533 71.7996 4.25333 71.4583 4.552C71.1383 4.85067 70.765 5 70.3383 5C69.869 5 69.4743 4.85067 69.1543 4.552C68.8343 4.25333 68.6743 3.80533 68.6743 3.208C68.6743 2.58933 68.8343 2.14133 69.1543 1.864C69.4743 1.56533 69.869 1.416 70.3383 1.416ZM82.2363 23.016C82.663 23.016 83.1003 22.984 83.5483 22.92C83.9963 22.8347 84.359 22.7493 84.6363 22.664V24.808C84.3376 24.9573 83.911 25.0747 83.3563 25.16C82.8016 25.2667 82.2683 25.32 81.7563 25.32C80.8603 25.32 80.0283 25.1707 79.2603 24.872C78.5136 24.552 77.9056 24.008 77.4363 23.24C76.967 22.472 76.7323 21.3947 76.7323 20.008V10.024H74.3003V8.68L76.7643 7.56L77.8843 3.912H79.5483V7.848H84.5083V10.024H79.5483V19.944C79.5483 20.9893 79.7936 21.768 80.2843 22.28C80.7963 22.7707 81.447 23.016 82.2363 23.016ZM84.7428 7.848H87.7508L91.4628 17.608C91.6761 18.184 91.8681 18.7387 92.0388 19.272C92.2308 19.8053 92.4015 20.328 92.5508 20.84C92.7001 21.3307 92.8175 21.8107 92.9028 22.28H93.0308C93.1588 21.7467 93.3615 21.0533 93.6388 20.2C93.9161 19.3253 94.2041 18.4507 94.5028 17.576L97.9908 7.848H101.031L93.6388 27.368C93.2335 28.4347 92.7535 29.3627 92.1988 30.152C91.6655 30.9627 91.0041 31.5813 90.2148 32.008C89.4468 32.456 88.5081 32.68 87.3988 32.68C86.8868 32.68 86.4388 32.648 86.0548 32.584C85.6708 32.5413 85.3401 32.488 85.0628 32.424V30.184C85.2975 30.2267 85.5748 30.2693 85.8948 30.312C86.2361 30.3547 86.5881 30.376 86.9508 30.376C87.6121 30.376 88.1775 30.248 88.6468 29.992C89.1375 29.7573 89.5535 29.4053 89.8948 28.936C90.2361 28.488 90.5241 27.9547 90.7588 27.336L91.6548 25.064L84.7428 7.848ZM121.577 4.36C120.361 4.36 119.262 4.57333 118.281 5C117.299 5.40533 116.467 6.01333 115.785 6.824C115.102 7.61333 114.579 8.584 114.217 9.736C113.854 10.8667 113.673 12.1467 113.673 13.576C113.673 15.4533 113.961 17.0853 114.537 18.472C115.134 19.8587 116.009 20.9253 117.161 21.672C118.334 22.4187 119.795 22.792 121.545 22.792C122.547 22.792 123.497 22.7067 124.393 22.536C125.289 22.3653 126.163 22.152 127.017 21.896V24.392C126.163 24.712 125.278 24.9467 124.361 25.096C123.465 25.2453 122.387 25.32 121.129 25.32C118.803 25.32 116.862 24.84 115.305 23.88C113.747 22.92 112.574 21.5547 111.785 19.784C111.017 18.0133 110.633 15.9333 110.633 13.544C110.633 11.816 110.867 10.2373 111.337 8.808C111.827 7.37867 112.531 6.14133 113.449 5.096C114.387 4.05067 115.539 3.25067 116.905 2.696C118.27 2.12 119.838 1.832 121.609 1.832C122.782 1.832 123.913 1.94933 125.001 2.184C126.089 2.41867 127.059 2.74933 127.913 3.176L126.761 5.608C126.057 5.288 125.267 5 124.393 4.744C123.539 4.488 122.601 4.36 121.577 4.36ZM145.892 16.392C145.892 17.8213 145.7 19.0907 145.316 20.2C144.953 21.288 144.42 22.216 143.716 22.984C143.033 23.752 142.19 24.3387 141.188 24.744C140.206 25.128 139.108 25.32 137.892 25.32C136.761 25.32 135.716 25.128 134.756 24.744C133.796 24.3387 132.964 23.752 132.26 22.984C131.556 22.216 131.001 21.288 130.596 20.2C130.212 19.0907 130.02 17.8213 130.02 16.392C130.02 14.4933 130.34 12.8933 130.98 11.592C131.62 10.2693 132.537 9.26667 133.732 8.584C134.926 7.88 136.345 7.528 137.988 7.528C139.545 7.528 140.91 7.88 142.084 8.584C143.278 9.26667 144.206 10.2693 144.868 11.592C145.55 12.8933 145.892 14.4933 145.892 16.392ZM132.932 16.392C132.932 17.736 133.102 18.9093 133.444 19.912C133.806 20.8933 134.361 21.6507 135.108 22.184C135.854 22.7173 136.804 22.984 137.956 22.984C139.108 22.984 140.057 22.7173 140.804 22.184C141.55 21.6507 142.094 20.8933 142.436 19.912C142.798 18.9093 142.98 17.736 142.98 16.392C142.98 15.0267 142.798 13.864 142.436 12.904C142.073 11.944 141.518 11.208 140.772 10.696C140.046 10.1627 139.097 9.896 137.924 9.896C136.174 9.896 134.905 10.472 134.116 11.624C133.326 12.776 132.932 14.3653 132.932 16.392ZM155.795 25.32C153.661 25.32 151.955 24.584 150.675 23.112C149.395 21.6187 148.755 19.4 148.755 16.456C148.755 13.512 149.395 11.2933 150.675 9.8C151.976 8.28533 153.693 7.528 155.827 7.528C156.723 7.528 157.501 7.64533 158.163 7.88C158.824 8.09333 159.4 8.392 159.891 8.776C160.381 9.16 160.797 9.58667 161.139 10.056H161.331C161.309 9.77867 161.267 9.37333 161.203 8.84C161.16 8.28533 161.139 7.848 161.139 7.528V0.679998H163.955V25H161.683L161.267 22.696H161.139C160.797 23.1867 160.381 23.6347 159.891 24.04C159.4 24.424 158.813 24.7333 158.131 24.968C157.469 25.2027 156.691 25.32 155.795 25.32ZM156.243 22.984C158.056 22.984 159.325 22.4933 160.051 21.512C160.797 20.5093 161.171 19.0053 161.171 17V16.488C161.171 14.3547 160.819 12.7227 160.115 11.592C159.411 10.44 158.109 9.864 156.211 9.864C154.696 9.864 153.555 10.472 152.787 11.688C152.04 12.8827 151.667 14.4933 151.667 16.52C151.667 18.568 152.04 20.1573 152.787 21.288C153.555 22.4187 154.707 22.984 156.243 22.984ZM175.386 7.528C176.858 7.528 178.117 7.848 179.162 8.488C180.229 9.128 181.039 10.0347 181.594 11.208C182.17 12.36 182.458 13.7147 182.458 15.272V16.968H170.714C170.757 18.9093 171.247 20.392 172.186 21.416C173.146 22.4187 174.479 22.92 176.186 22.92C177.274 22.92 178.234 22.824 179.066 22.632C179.919 22.4187 180.794 22.12 181.69 21.736V24.2C180.815 24.584 179.951 24.8613 179.098 25.032C178.245 25.224 177.231 25.32 176.058 25.32C174.437 25.32 172.997 24.9893 171.738 24.328C170.501 23.6667 169.53 22.6853 168.826 21.384C168.143 20.0613 167.802 18.4507 167.802 16.552C167.802 14.6747 168.111 13.064 168.73 11.72C169.37 10.376 170.255 9.34133 171.386 8.616C172.538 7.89067 173.871 7.528 175.386 7.528ZM175.354 9.832C174.01 9.832 172.943 10.2693 172.154 11.144C171.386 11.9973 170.927 13.192 170.778 14.728H179.514C179.514 13.7467 179.365 12.8933 179.066 12.168C178.767 11.4427 178.309 10.8773 177.69 10.472C177.093 10.0453 176.314 9.832 175.354 9.832Z" fill="white"/>
</svg>
